<?xml version="1.0" encoding="UTF-8"?>
<svg width="800" height="800" viewBox="0 0 800 800" fill="none" xmlns="http://www.w3.org/2000/svg">
  <path d="M400 50C204.8 50 50 204.8 50 400C50 595.2 204.8 750 400 750C595.2 750 750 595.2 750 400C750 204.8 595.2 50 400 50ZM400 100C567.5 100 700 232.5 700 400C700 567.5 567.5 700 400 700C232.5 700 100 567.5 100 400C100 232.5 232.5 100 400 100Z" fill="#64748B"/>
  <path d="M400 150L250 450H550L400 150ZM400 200L500 400H300L400 200Z" fill="#64748B"/>
  <path d="M400 250L350 350H450L400 250Z" fill="#64748B"/>
</svg> 